<?xml version="1.0" encoding="UTF-8"?>
<svg width="1024" height="1024" viewBox="0 0 1024 1024" xmlns="http://www.w3.org/2000/svg">
  <defs>
    <path id="icon-shape" d="M512 64C651.7 64 800.3 64 879.2 144.8C960 223.7 960 372.3 960 512C960 651.7 960 800.3 879.2 879.2C800.3 960 651.7 960 512 960C372.3 960 223.7 960 144.8 879.2C64 800.3 64 651.7 64 512C64 372.3 64 223.7 144.8 144.8C223.7 64 372.3 64 512 64Z"/>

    <clipPath id="icon-clip">
      <use href="#icon-shape"/>
    </clipPath>

    <linearGradient id="face" x1="224" y1="104" x2="818" y2="920" gradientUnits="userSpaceOnUse">
      <stop offset="0" stop-color="#f5f7fb"/>
      <stop offset="0.25" stop-color="#cbd3dd"/>
      <stop offset="0.57" stop-color="#9da8b7"/>
      <stop offset="1" stop-color="#6f7d91"/>
    </linearGradient>

    <radialGradient id="top-glow" cx="0" cy="0" r="1" gradientUnits="userSpaceOnUse" gradientTransform="translate(331 165) rotate(52.5) scale(834 707)">
      <stop offset="0" stop-color="#ffffff" stop-opacity="0.88"/>
      <stop offset="0.5" stop-color="#ffffff" stop-opacity="0.18"/>
      <stop offset="1" stop-color="#ffffff" stop-opacity="0"/>
    </radialGradient>

    <radialGradient id="bottom-depth" cx="0" cy="0" r="1" gradientUnits="userSpaceOnUse" gradientTransform="translate(710 887) rotate(-111.5) scale(597 650)">
      <stop offset="0" stop-color="#0c223f" stop-opacity="0.32"/>
      <stop offset="0.72" stop-color="#0c223f" stop-opacity="0.05"/>
      <stop offset="1" stop-color="#0c223f" stop-opacity="0"/>
    </radialGradient>

    <linearGradient id="rim" x1="193" y1="95" x2="842" y2="936" gradientUnits="userSpaceOnUse">
      <stop offset="0" stop-color="#ffffff" stop-opacity="0.78"/>
      <stop offset="0.4" stop-color="#ffffff" stop-opacity="0.18"/>
      <stop offset="1" stop-color="#0c223f" stop-opacity="0.32"/>
    </linearGradient>

    <filter id="outer-shadow" x="-10%" y="-8%" width="120%" height="124%" color-interpolation-filters="sRGB">
      <feDropShadow dx="0" dy="24" stdDeviation="26" flood-color="#0c223f" flood-opacity="0.26"/>
      <feDropShadow dx="0" dy="4" stdDeviation="7" flood-color="#0c223f" flood-opacity="0.18"/>
    </filter>

    <filter id="mark-shadow" x="-8%" y="-8%" width="116%" height="118%" color-interpolation-filters="sRGB">
      <feDropShadow dx="0" dy="18" stdDeviation="16" flood-color="#0c223f" flood-opacity="0.26"/>
      <feDropShadow dx="0" dy="2" stdDeviation="2" flood-color="#ffffff" flood-opacity="0.18"/>
    </filter>
  </defs>

  <rect width="1024" height="1024" fill="none"/>

  <g filter="url(#outer-shadow)">
    <use href="#icon-shape" fill="url(#face)"/>
    <g clip-path="url(#icon-clip)">
      <use href="#icon-shape" fill="url(#top-glow)"/>
      <use href="#icon-shape" fill="url(#bottom-depth)"/>
      <path d="M64 106C185.4 177.5 339.7 216 512 216C684.3 216 838.6 177.5 960 106V64H64V106Z" fill="#ffffff" opacity="0.28"/>
      <path d="M90 730C212 814 355.3 858 512 858C668.7 858 812 814 934 730V960H90V730Z" fill="#0c223f" opacity="0.06"/>
    </g>
    <use href="#icon-shape" fill="none" stroke="url(#rim)" stroke-width="2.5"/>
    <path d="M512 86C648.7 86 787 86 863.3 162.7C940 239 940 377.3 940 512C940 648.7 940 787 863.3 863.3C787 940 648.7 940 512 940C377.3 940 239 940 162.7 863.3C86 787 86 648.7 86 512C86 377.3 86 239 162.7 162.7C239 86 377.3 86 512 86Z" fill="none" stroke="#ffffff" stroke-opacity="0.22" stroke-width="7"/>
  </g>

  <g filter="url(#mark-shadow)" transform="translate(92 92) scale(0.42) translate(-272.908325 -659.503418)">
    <path fill="#0c223f" d="M2022.900391 2401.179932L1772.908325 2401.179932L1772.908325 2151.180176L2022.900391 2151.180176L2022.900391 2401.179932Z"/>
    <path fill="#ffffff" d="M1272.894165 2401.179932L1022.902466 2401.179932L1022.902466 2151.180176L1272.894165 2151.180176L1272.894165 2401.179932Z"/>
    <path fill="#ffffff" d="M1272.894165 1901.167969L897.890381 1901.167969C828.851257 1901.167969 772.902466 1957.137085 772.902466 2026.175781L772.902466 2401.179932L522.900452 2401.179932L522.900452 2026.175781C522.900452 1819.063354 690.783752 1651.172119 897.890381 1651.172119L1272.894165 1651.172119L1272.894165 1901.167969Z"/>
    <path fill="#0c223f" d="M1272.894165 1276.167969C1272.894165 1069.063232 1440.787842 901.169922 1647.900391 901.169922L2022.900391 901.169922L2022.900391 1151.165771L1647.900391 1151.165771C1578.857544 1151.165771 1522.89209 1207.128662 1522.89209 1276.167969L1522.89209 1651.172119L2022.900391 1651.172119L2022.900391 1901.167969L1522.89209 1901.167969L1522.89209 2401.179932L1272.894165 2401.179932L1272.894165 1276.167969Z"/>
  </g>
</svg>
